<svg version="1.0" xmlns="http://www.w3.org/2000/svg" width="1496" height="1496" viewBox="0 0 1122 1122"><path d="M0 561v561h1122V0H0v561zm477.3-358.8c.3 2.9 2.3 24.2 4.3 47.3 2 23.1 4 42.3 4.4 42.8.3.4 4.9-1.3 10.1-3.7 19.7-9.3 37-13.4 60.4-14.3 40.4-1.4 73.9 10.7 83.8 30.4 4.8 9.3 4.6 11.2-3.7 49.8-9.7 45-9.5 43.3-6.1 47.3 3.3 3.9 7.8 6.4 16.1 8.7l6.1 1.7-1 3.9c-.5 2.1-1.3 3.9-1.8 3.9-.4 0-7.1-1.6-14.9-3.5-23.8-5.8-63.3-11.5-80-11.5h-6v-8.8l9.3-.4c5.4-.2 10.4-.9 12.1-1.8 6-3 6.5-5.2 10.2-42.3 4.2-42.1 4.3-46 1.5-51.5-4.5-8.9-16-14.2-32.2-15-11.9-.5-19.9.6-31.6 4.4-9.4 3-30.3 13.2-31 15.1-1 2.6 6.8 81.6 8.4 84.6 2 4 7.2 5.8 18.5 6.5l9.8.5v8.7h-7.7c-18.1 0-50.4 4.2-74.8 9.7-8.8 2-16.9 3.8-18.1 4-1.8.4-2.3-.2-3.1-3.6l-1.1-4 5.5-1.6c8.6-2.5 16-6.1 17.2-8.3.6-1.2 1.1-3.6 1.1-5.5 0-3.4-28.1-139.4-30-145.3-3.1-9.4-16.3-14.2-35.6-12.9-8.9.5-10.2.4-10.8-1-1.3-3.4-.5-4.6 4.2-6.6 36-15.7 88.4-32.8 100.8-32.9h5.1l.6 5.2zm-147.8 45c16.6 46.9 15.6 43.7 13.7 44.6-.9.5-4.7 1.9-8.3 3.2l-6.5 2.2-9.3-3.6c-44.5-17.9-92.8-12.3-137.6 15.9-36 22.6-61.3 53.4-71.2 86.4-3.7 12.6-4.4 31.4-1.4 43.1 5.7 23 20.9 41.7 42.6 52.5 15.3 7.5 22.7 9 45.5 9 18.9 0 19.9-.1 32.5-3.4 22.3-5.7 42.1-14.6 62.8-28.1 33.9-22 60.1-48.2 79.2-79.3l4.8-7.7h7.3c4.1 0 7.4.4 7.4.8 0 1.7-14 22.2-22.1 32.2-10.1 12.6-28.7 31.4-42.4 42.9-15.1 12.6-47.4 36.6-65.2 48.4-69.6 46.2-123.8 63.1-162 50.6-8.3-2.7-19.7-10.3-25.6-17-5.9-6.7-12-18.8-14.8-29.4-3.1-11.6-3.1-35.7 0-50.5 14.6-69.2 70.7-136.3 143.6-171.5 7.2-3.4 22.9-10.2 35-15 31.3-12.5 44.7-19.5 57.1-30.1 3.5-3 8.3-5.5 15.5-8.3 5.7-2.2 11.1-4 12-4 1.2-.1 3.1 4 7.4 16.1zm439.5-5.7c15.1 5.8 32.1 13.5 51 23.1 95.5 48.1 175.8 119.4 236.2 209.7l9.9 14.9-2.2 3.6c-1.9 3.2-22 35.4-25.3 40.4-.6 1-1.3 1.8-1.7 1.8-.3 0-3.1-4.3-6.2-9.5l-5.7-9.4-.3-15.8c-.6-24.6-5.1-42.2-17-65.8-9.3-18.7-20.9-33.7-44.3-57.4l-14.2-14.4-17 18.9c-87.7 97.9-98.2 109.9-99.8 114.6-2.8 8.6.7 16 16.7 35.1l8.2 9.9-3 3-3 3-5.8-6.4c-30.4-32.9-66.8-61.9-103.5-82.3-5.8-3.2-10.6-6-10.8-6.1-.8-.5 3.3-7.4 4.2-7 .6.2 7.5 3.4 15.3 7.1 20.3 9.5 28.6 9.9 36.5 1.7 2-2 24.8-34.7 50.7-72.7l47.1-68.9-7.5-4.8c-25.3-16.1-55-28.8-78.1-33.5-14.7-2.9-36.3-2.5-55.8 1.1l-15.8 2.9-8.5-2.7c-7.6-2.5-8.3-2.9-7.1-4.4 5.3-6.4 19.5-22.1 26.5-29.4l8.3-8.7 6.8 2.5c3.7 1.4 10.5 4.1 15.2 5.9zm-87.3 216.6c10.2 9.3 15 13.4 29.5 25.5 2.7 2.2 2.7 2.3 1.3 5.8-.9 2-1.9 3.6-2.4 3.6-.4 0-6.8-2.9-14.2-6.4-25.1-11.9-32.7-13.3-44.2-7.9l-6.8 3.2 4.3 7.9c47.3 86.4 132.2 238.5 135.3 241.9 2.1 2.5 5.4 5.2 7.2 6 7 2.9 13.8-3.2 22.4-20 2.8-5.4 5.3-9.6 5.6-9.3.3.3 2 2.7 3.8 5.3l3.2 4.8-3.9 9.5c-15.3 36.7-39.2 71.4-68.2 98.7-7.8 7.4-24.6 21.4-26.4 22-.4.2-1.8-2.9-3.2-6.9l-2.6-7.2 10.3-10.1c12.8-12.6 16.4-19.4 17.1-32.1.4-6.7 0-9.9-2.1-17.1-2.5-8.8-121.6-282.3-122.9-282.3-2.1 0-9.8 7.4-12.6 12-6.1 10.3-8.4 22.3-10.3 55-.6 11.3-1.5 21.2-2 22.1-.8 1.6-5.7 3.5-6.6 2.5-.2-.2-2.2-12.7-4.3-27.7-2.1-15.1-5.3-35.9-7-46.3-1.6-10.4-2.7-19.3-2.3-19.6.5-.4 4.9-1.7 9.8-3 28.8-7.4 57.5-21.4 74-36.4 2.8-2.5 5.3-4.4 5.7-4.3.3.1 6 5 12.5 10.8zm-266.6 10.1c5.9 2 8.3 4.4 13.9 14 6.6 11.1 8.1 12.8 11.9 12.8 2.1 0 4-1.2 7.5-5 2.5-2.7 4.6-5.4 4.6-6.1 0-.8 1.2-1 3.6-.6 2 .3 3.8.8 4 1 .5.4-28.4 122.8-29.1 123.5-.5.6-4.6-.5-6.3-1.6-1.1-.8-1.2-6.3-.2-32.3 1.8-46.9.1-71.8-5.6-83-2-4.1-3.4-5.5-7.1-7.1-3.9-1.7-5.1-1.8-9-.8-14.3 3.5-38 22.5-64 51.1-67.4 74-97.4 149.9-85.7 216.8 6.2 35.6 25.7 62.7 52 72.3 8.1 2.9 22.5 3.5 31.9 1.4 14.3-3.4 29.4-12.6 43.8-26.8 3.9-3.8 7.1-6.7 7.2-6.6.1.2 2.1 3.3 4.5 7l4.2 6.8-5.6 6.4c-12.3 13.9-30.1 26.2-45.2 31.2-8.2 2.7-10.1 2.9-23.4 2.9-13.7 0-15-.2-23.2-3.1-4.8-1.7-12.2-5.3-16.5-7.9-9.9-6.2-27.2-23.3-34.2-34-19.3-29.5-28.2-65.7-26.8-109.5 1.2-37.2 9.7-71.1 26-103.5 19.6-39 47.9-67.1 94.6-94 37.8-21.7 60-29.5 72.2-25.3zm88.3 25.5c-.8 8.4-11.5 189.5-11.2 190.4.2.5 2.8-2.3 5.8-6.2 8.5-11 19.1-20.3 27.8-24.6 7-3.5 8.3-3.8 15.6-3.7 8.8.1 12.4 1.3 19.4 6.3 11.4 8.4 22.1 30.2 27.1 55.4 1.1 5.6 6.3 39.7 11.6 75.7 10.8 73.6 12.4 82.6 15.5 87 4.2 5.9 12.2 7.6 21 4.5 2.3-.8 4.6-1.5 5.1-1.5.7 0 1.3 2.4 3.5 14.1.5 2.5.1 2.7-10.8 6.2-29 9.4-58.1 15-89.5 17.3l-9.3.7v-9.2c0-9 0-9.1 2.5-9.1 1.3 0 4.7-.5 7.6-1.1 10.4-2.2 15.9-10.7 15.9-24.6 0-9.5-9.8-152.7-11-160.8-3.2-21.4-11.2-35.8-20.9-38-7.6-1.6-19.3 8-33 27.2l-5.7 7.9-4.8 80.7c-2.7 44.4-4.6 83.8-4.4 87.5.7 8.9 3 13.6 8.3 16.8 3.4 2 15 5.3 18.8 5.4.4 0 .7 3.9.7 8.7v8.6l-13-.6c-29-1.5-62-7.5-88.8-16.2-6.1-2-11.2-3.7-11.2-3.8 0-.8 3.1-16.1 3.3-16.3.1-.1 3.6.5 7.8 1.4 6.6 1.2 8.3 1.3 12 .1 5.3-1.8 7.5-4.7 9.4-12.9.8-3.6 10.7-71.6 22-151.2C468 592.6 471 569.4 471 559.3c0-13.3-1.5-20.9-5.3-27.7-2.4-4.4-2.5-5.1-1.5-10.1 1.1-5.4 1.2-5.6 10.5-12.1 5.1-3.7 12.8-9.8 17.1-13.5 4.3-3.8 8.7-6.8 9.9-6.8 2-.1 2.2.3 1.7 4.6z"/><path d="m395 229.2-8.5 2.3 11.2 1.1c12.7 1.4 17.7 3.5 22.5 9.5 2.8 3.4 3.7 7.5 16.9 76.3 7.6 40 13.9 74.3 13.9 76.4 0 2.1-.7 4.8-1.6 6-1.4 2.1-1.4 2.2.6 2.2 6 0 13.7-6.4 14.6-12.1.5-3.4-20.4-140.4-22.7-148.4-1.6-5.8-5.5-10.4-10.8-12.7-7.2-3.2-24.9-3.5-36.1-.6zM580 287.1c10.2 5.6 14 10.7 14 18.7 0 7.7-8.9 82.1-10.1 84.5-.6 1.2-2.5 3.5-4.3 5l-3.1 2.8 6.5-.4c8.7-.6 12.7-2.7 15.1-8.2 1.6-3.7 6.6-33.4 12-72.3 2.4-17.5-3.7-25.8-23.2-31.2-4.1-1.1-8.5-2-9.9-2-2 0-1.5.6 3 3.1zM284 259.8c-3 2-10.6 6.2-16.9 9.3l-11.3 5.8h16.3c9 .1 19.3.5 22.9 1 3.6.4 6.6.8 6.7.7.5-.4-10.3-20-11.2-20.2-.5-.1-3.5 1.4-6.5 3.4zM99.8 381.2C69.6 426.7 58.4 466 65.6 501.3c1.8 8.6 4.6 15.5 10 23.7 7.4 11.6 17.1 18.8 31.9 23.8 7.5 2.5 9.1 2.6 25.5 2.6s18.2-.2 29.2-3.2c25.8-6.9 56.7-21.4 90.6-42.4 6.1-3.8 11.2-7.1 11.2-7.4 0-.2-3.2 1.2-7.2 3.2-36 18.2-71 31-95.3 34.9-11.5 1.9-29 1.9-38 0-21.6-4.5-37.1-19.4-44.5-43-4.8-14.9-3.6-42.8 2.6-64.3 4.6-15.9 14.7-38.9 24-54.8 4.7-8 1.8-4.6-5.8 6.8zM743 253.5l-9.3 9.3 6.4-1.4c10.4-2.4 30.8-2.8 42.8-1 5.7.9 10.6 1.4 10.8 1.2.4-.3-21.2-9.5-33.8-14.4l-7.7-2.9-9.2 9.2zM845.3 388.2c-27 38.1-50.6 70.7-52.5 72.4-4.6 4.4-7 5.4-14.1 6.2l-6.2.8 8.4 4.2c4.6 2.3 9.5 4.2 10.9 4.2 4 0 10.3-3.5 14.9-8.2 4.9-5.1 94.6-122.5 96.8-126.8 3.1-6.1 1.5-11.7-5.2-18.3l-3.9-3.7-49.1 69.2zM1008.8 426.2c2.5 3.2 12.3 24.2 15.1 32.7 1.7 5.1 4.2 14.5 5.4 20.7 1.3 6.2 2.6 11.6 2.9 11.9.5.5 9.8-20.5 9.8-22.1 0-1.8-32.3-44.4-33.7-44.4-.3 0-.1.6.5 1.2zM666.6 465.5l-4.8 4.3 5.8 1.2c3.2.7 10 2.9 15.1 5l9.4 3.9-9.7-9.2c-5.3-5.1-9.9-9.3-10.3-9.4-.3-.1-2.8 1.8-5.5 4.2zM629 491.6c0 .4 26.8 60.1 59.6 132.7 65.6 145.2 64.5 142.6 66.8 151.8 1.7 7.1 2.1 19.2.7 25.3l-.9 3.8 3.5-3.3c5.1-4.9 8.5-12.3 9.1-19.5.5-7.1-.8-13.5-5.1-24.9-3.1-8.5-117.6-245.8-122.8-254.7-4.2-7.3-10.9-14.1-10.9-11.2zM591.1 504.8l-5.3 1.5.6 4.6c.4 2.5 1.9 12.2 3.5 21.6l2.7 17 1.2-15c.7-8.3 2.1-18.7 3.1-23.3 2.1-9.1 2.4-8.8-5.8-6.4zM380 480.4c-23.1 9.4-52.6 26.5-71 41.3-31.9 25.5-54.2 57.2-67.8 96.3-15.8 45.7-17.3 97.4-4 138.9 2.8 9 11.7 30.5 12.3 29.9.1-.2-1.7-6.2-4-13.3-4.7-14.1-7.7-28-9.6-44.4-1.7-15.6-.7-51.4 2-66.6 8.7-49.1 28.3-88 60.1-119.5 18-17.9 44.7-37.5 75.5-55.5 13.3-7.8 19.1-11.5 17.9-11.5-.5.1-5.6 2-11.4 4.4zM431.4 526.8l.9 20.6 5.3-19.9c3-11 5.4-20.4 5.4-20.8 0-.4-.9-.3-1.9.3-2.4 1.2-6.7 1.3-8.9.1-1.6-.8-1.6.5-.8 19.7zM470.3 527.7c.3 1 1.6 4.5 2.9 7.8 2 5.4 2.3 7.6 2.2 22-.1 14.7-1.6 27.3-18.3 154-9.9 75.9-18.8 142.7-19.7 148.5-1.7 11-4.5 20-6.9 22-.8.7-1.5 1.6-1.5 2.1 0 1.2 6.1 2.6 8.9 2.1 4.1-.8 10.4-8.1 12.4-14.2 1.8-5.7 32.2-287.9 33.4-310.5.7-12.9-.8-23.8-4-30.4-2.1-4.1-2.7-4.6-6.1-4.9-3.4-.3-3.8-.1-3.3 1.5zM542.3 671c6 6.6 10.5 17 12.6 29.5 1.8 10.2 14.3 170.6 13.8 176.7-.3 3.1-1.6 8.2-3 11.2-3 6.4-2.3 7 4.9 3.7 7.1-3.2 9.6-8 10.9-20.6.7-6.3-11.5-132.2-15.5-160.2-3.8-26.6-9.2-38.2-20.2-42.7-6.5-2.7-7.4-2.1-3.5 2.4z"/></svg>