<svg aria-hidden="true" style="width:0;height:0;position:absolute;overflow:hidden" xmlns="http://www.w3.org/2000/svg"><defs><symbol id="icon-instagram" viewBox="0 0 32 32"><path d="M16.316 32h-.319c-2.508.006-4.826-.058-7.08-.195-2.066-.126-3.953-.84-5.455-2.065-1.45-1.182-2.44-2.781-2.942-4.75-.438-1.715-.461-3.398-.483-5.026a343.853 343.853 0 0 1-.036-3.96c.003-1.414.02-2.798.036-3.966.022-1.628.045-3.311.483-5.026.503-1.97 1.493-3.568 2.942-4.75C4.965 1.037 6.851.323 8.918.197 11.172.06 13.49-.004 16.004.002c2.509-.005 4.826.058 7.08.195 2.066.126 3.953.84 5.455 2.065 1.45 1.182 2.44 2.781 2.943 4.75.437 1.715.461 3.398.483 5.026.016 1.168.033 2.552.036 3.96v.006c-.003 1.408-.02 2.792-.036 3.96-.022 1.628-.045 3.311-.483 5.026-.503 1.97-1.493 3.568-2.943 4.75-1.502 1.225-3.389 1.939-5.455 2.065-2.159.131-4.376.195-6.768.195zm-.319-2.5c2.468.006 4.733-.056 6.934-.19 1.563-.095 2.917-.602 4.027-1.507 1.026-.837 1.732-1.991 2.1-3.431.364-1.428.385-2.96.406-4.442.016-1.16.032-2.535.036-3.929-.004-1.394-.02-2.769-.036-3.929-.02-1.482-.041-3.015-.406-4.443-.367-1.44-1.074-2.594-2.1-3.431-1.11-.905-2.465-1.412-4.027-1.507a108.807 108.807 0 0 0-6.928-.19c-2.467-.006-4.733.056-6.934.19-1.563.095-2.917.602-4.027 1.507-1.026.837-1.732 1.991-2.1 3.431-.364 1.428-.385 2.96-.406 4.443a363.726 363.726 0 0 0-.036 3.932c.003 1.389.02 2.765.036 3.926.02 1.482.041 3.015.406 4.442.367 1.44 1.074 2.594 2.1 3.431 1.11.905 2.465 1.412 4.027 1.507 2.201.134 4.467.197 6.928.191zm-.06-5.688c-4.308 0-7.813-3.505-7.813-7.812s3.505-7.813 7.813-7.813S23.75 11.692 23.75 16s-3.505 7.812-7.813 7.812zm0-13.125c-2.929 0-5.313 2.383-5.313 5.313s2.383 5.312 5.313 5.312c2.93 0 5.313-2.383 5.313-5.312s-2.383-5.313-5.313-5.313zm8.688-5a1.875 1.875 0 1 0 0 3.75 1.875 1.875 0 0 0 0-3.75z"/></symbol><symbol id="icon-phone" viewBox="0 0 30 32"><path d="M6.032 3.451A3.574 3.574 0 0 0 3.335 4.7c-.558.652-.873 1.483-.82 2.339.337 5.395 2.567 10.693 6.689 14.816s9.421 6.352 14.815 6.689c.856.053 1.687-.262 2.339-.82a3.574 3.574 0 0 0 1.249-2.697v-2.528a2.51 2.51 0 0 0-1.9-2.435l-3.893-.975a2.505 2.505 0 0 0-1.921.295l-2.896 1.775a1.19 1.19 0 0 1-1.361-.063c-1.007-.791-2.215-1.887-3.001-2.673s-1.882-1.994-2.673-3.001a1.19 1.19 0 0 1-.062-1.361l1.775-2.896a2.51 2.51 0 0 0 .295-1.921l-.975-3.893a2.51 2.51 0 0 0-2.435-1.9H6.032z"/><path d="M23.241 1.793c0 .471.382.852.852.852h3.116l-9.39 9.39a.852.852 0 0 0 1.205 1.205l9.39-9.39v3.116a.852.852 0 0 0 1.704 0V1.793a.852.852 0 0 0-.852-.852h-5.173a.851.851 0 0 0-.852.852z"/></symbol><symbol id="icon-facebook" viewBox="0 0 32 32"><path d="M22.446 5.72h3.131V.003h-5.69c-.475-.02-6.261-.13-7.761 5.589-.022.06-.501 1.42-.501 4.597l-5.203.016v5.996l5.21-.015v15.815h7.958V16.2h5.267v-6.012H19.59V8.296c0-1.176.496-2.577 2.857-2.577zm1.094 5.784v3.378h-5.267v15.801h-5.324V14.865l-5.21.015v-3.362l5.223-.015-.014-.67c-.068-3.366.411-4.781.433-4.849 1.294-4.926 6.237-4.678 6.449-4.665l4.43.001v3.083h-1.814c-3.077 0-4.173 2.011-4.173 3.892v3.208h5.266z"/></symbol><symbol id="icon-telegram" viewBox="0 0 32 32"><path d="m25.6 5.867-21.733 8.4C2.4 14.8 2.4 15.734 3.6 16l5.467 1.733 2.133 6.4c.267.667.133.933.8.933.533 0 .8-.267 1.067-.533l2.667-2.667 5.6 4.133c1.067.533 1.733.267 2-.933l3.733-17.467c.4-1.467-.533-2.267-1.467-1.733zm-2.8 4-10.4 9.467-.4 4.4-2.133-6.4 12.267-7.733c.533-.4 1.067-.133.667.267z"/></symbol><symbol id="icon-viber" viewBox="0 0 32 32"><path d="M19.047 0h-6.095C6.568 0 1.374 5.193 1.374 11.575v5.491c0 4.753 2.921 9.025 7.313 10.765v3.559a.61.61 0 0 0 1.019.451l3.534-3.201h5.808c6.384 0 11.578-5.193 11.578-11.575v-5.491c0-6.383-5.194-11.575-11.578-11.575zm10.359 17.066c0 5.711-4.647 10.357-10.359 10.357h-6.043a.607.607 0 0 0-.409.158l-2.689 2.436v-2.608a.608.608 0 0 0-.406-.574 10.379 10.379 0 0 1-6.906-9.769v-5.491c0-5.711 4.647-10.357 10.359-10.357h6.095c5.712 0 10.359 4.646 10.359 10.357v5.491z"/><path d="m24.053 18.582-3.745-2.433a1.825 1.825 0 0 0-2.529.536l-.176.271c-1.621-.536-3.408-1.22-4.478-4.318l.443-.385c.761-.661.84-1.818.179-2.58l-2.93-3.371a.61.61 0 0 0-.86-.06l-1.84 1.599c-1.614 1.403-.86 3.478-.612 4.16a.58.58 0 0 0 .04.088c.064.115 1.592 2.841 4.059 5.354 2.477 2.523 6.95 4.854 7.087 4.921a3.051 3.051 0 0 0 4.215-.895l1.327-2.044a.611.611 0 0 0-.18-.844zm-2.17 2.224c-.549.846-1.684 1.086-2.58.508-.044-.023-4.488-2.337-6.829-4.723-2.189-2.23-3.642-4.707-3.84-5.053-.483-1.353-.397-2.185.283-2.776l1.38-1.199 2.53 2.91a.602.602 0 0 1-.059.86l-.748.65a.61.61 0 0 0-.183.639c1.275 4.143 3.754 4.956 5.564 5.55l.264.087a.607.607 0 0 0 .704-.246l.432-.665c.089-.138.225-.231.384-.264s.321-.002.459.087l3.235 2.101-.996 1.534zM17.391 9.901a.608.608 0 1 0-.334 1.172 2.756 2.756 0 0 1 1.887 1.892.61.61 0 0 0 1.173-.331 3.984 3.984 0 0 0-2.726-2.733z"/><path d="M22.028 13.54a.61.61 0 0 0 .587-.775 7.739 7.739 0 0 0-5.295-5.307.609.609 0 1 0-.334 1.173 6.51 6.51 0 0 1 4.455 4.466.61.61 0 0 0 .586.444z"/><path d="M17.058 4.62a.61.61 0 0 0-.334 1.173 11.032 11.032 0 0 1 7.549 7.566.61.61 0 0 0 1.173-.331c-1.139-4.038-4.353-7.26-8.388-8.408z"/></symbol><symbol id="icon-like" viewBox="0 0 32 32"><path fill="#f86808" style="fill:var(--color1,#f86808)" d="M18.253 1.333c-.572 0-1.104.295-1.408.78l-6.179 9.886v16h14.352c1.01 0 1.933-.571 2.385-1.474l2.7-5.4c.37-.741.563-1.557.563-2.385v-5.408a2.667 2.667 0 0 0-2.667-2.667h-8.667l1.355-6.322a2.49 2.49 0 0 0-2.435-3.012zM2.667 13.333C2.667 12.597 3.264 12 4 12h4v16H4a1.333 1.333 0 0 1-1.333-1.333V13.334z"/></symbol><symbol id="icon-smile" viewBox="0 0 32 32"><path fill="#f86808" style="fill:var(--color1,#f86808)" d="M16 .5C7.437.5.5 7.438.5 16S7.438 31.5 16 31.5 31.5 24.562 31.5 16 24.562.5 16 .5zM21 11c1.106 0 2 .894 2 2s-.894 2-2 2-2-.894-2-2 .894-2 2-2zm-10 0c1.106 0 2 .894 2 2s-.894 2-2 2-2-.894-2-2 .894-2 2-2zm12.175 10.637C21.394 23.774 18.781 25 16 25s-5.394-1.225-7.175-3.363c-.85-1.019.688-2.294 1.537-1.281 1.4 1.681 3.45 2.637 5.638 2.637s4.238-.962 5.637-2.637c.837-1.012 2.381.262 1.538 1.281z"/></symbol><symbol id="icon-flash" viewBox="0 0 32 32"><path fill="#f86808" style="fill:var(--color1,#f86808)" d="M17.457 1.693c.377-.528 1.209-.261 1.209.388v11.253h6.705c.542 0 .858.613.542 1.054l-11.371 15.92c-.377.528-1.209.261-1.209-.387V18.668H6.628a.666.666 0 0 1-.542-1.054l11.371-15.92z"/></symbol><symbol id="icon-check-all" viewBox="0 0 41 32"><path fill="#3da9f4" style="fill:var(--color1,#3da9f4)" d="M9.627 29.225.433 19.849l2.595-2.595 6.919 4.324L29.839.821l2.595 1.73-20.195 26.511a1.73 1.73 0 0 1-2.611.163z"/><path fill="#3da9f4" style="fill:var(--color1,#3da9f4)" opacity=".497" d="M39.351 8.605h-4.324a.865.865 0 1 1 0-1.73h4.324a.865.865 0 1 1 0 1.73zM39.351 16.389H28.973a.865.865 0 1 1 0-1.73h10.378a.865.865 0 1 1 0 1.73zM39.351 24.173H22.919a.865.865 0 1 1 0-1.73h16.432a.865.865 0 1 1 0 1.73zM39.351 31.957H16.865a.865.865 0 1 1 0-1.73h22.486a.865.865 0 1 1 0 1.73z"/></symbol><symbol id="icon-search-3" viewBox="0 0 32 32"><path fill="#3da9f4" style="fill:var(--color1,#3da9f4)" opacity=".5" d="M18.704 17.018c-3.05-.846-5.923-.828-8.874-.008-1.483.412-2.478 1.663-2.478 3.113v.806c0 .358.309.649.692.649h12.454c.383 0 .692-.291.692-.649v-.797c0-1.45-.998-2.702-2.485-3.115zM14.703 14.659c2.192 0 3.892-2.504 3.892-4.657 0-2.201-1.745-3.992-3.892-3.992s-3.892 1.79-3.892 3.992c0 2.154 1.7 4.657 3.892 4.657z"/><path fill="#3da9f4" style="fill:var(--color1,#3da9f4)" d="M26.563 25.038a15.729 15.729 0 0 1-1.914 1.914l5.005 5.005 1.914-1.915-5.005-5.004z"/><path fill="#3da9f4" style="fill:var(--color1,#3da9f4)" d="M14.703.822c7.868 0 14.27 6.401 14.27 14.27s-6.402 14.27-14.27 14.27S.433 22.961.433 15.092 6.835.822 14.703.822zM1.792 15.092c0 7.119 5.792 12.911 12.911 12.911s12.911-5.792 12.911-12.911c0-7.12-5.792-12.911-12.911-12.911S1.792 7.973 1.792 15.092z"/></symbol><symbol id="icon-event-confirm-1" viewBox="0 0 33 32"><path fill="#3da9f4" style="fill:var(--color1,#3da9f4)" d="M8.242 6.739c-.536 0-.97-.289-.97-.646V1.568c0-.357.434-.646.97-.646s.97.289.97.646v4.525c0 .357-.434.646-.97.646zM23.758 6.739c-.536 0-.97-.289-.97-.646V1.568c0-.357.434-.646.97-.646s.97.289.97.646v4.525c0 .357-.434.646-.97.646z"/><path fill="#3da9f4" style="fill:var(--color1,#3da9f4)" opacity=".5" d="M18.415 27.715H2.6c-.389 0-.705-.297-.705-.663v-15.26c0-.366.316-.663.705-.663h26.799c.389 0 .705.297.705.663v7.82c.515.318.989.692 1.41 1.114V5.157c0-.733-.631-1.327-1.41-1.327h-4.231v2.654c0 1.099-.947 1.99-2.116 1.99s-2.116-.891-2.116-1.99V3.83H10.357v2.654c0 1.099-.947 1.99-2.116 1.99s-2.116-.891-2.116-1.99V3.83H1.894c-.779 0-1.41.594-1.41 1.327v22.558c0 .733.631 1.327 1.41 1.327h17.074a6.987 6.987 0 0 1-.554-1.327z"/><path fill="#3da9f4" style="fill:var(--color1,#3da9f4)" d="M26.182 31.951a6.303 6.303 0 0 1-6.303-6.303 6.31 6.31 0 0 1 6.303-6.303 6.303 6.303 0 0 1 0 12.606zm3.997-7.908a.7.7 0 0 0-.99-.99l-4.407 4.407-1.606-1.606a.7.7 0 0 0-.991.991l2.101 2.101a.7.7 0 0 0 .99 0l4.902-4.902z"/></symbol><symbol id="icon-burger-menu-icon" viewBox="0 0 32 32"><path d="M6.4 11.733V9.6h19.2v2.133H6.4zm0 5.334h19.2v-2.133H6.4v2.133zm0 5.333h19.2v-2.133H6.4V22.4z"/></symbol><symbol id="icon-go-up" viewBox="0 0 12 12"><path d="M12 8.042 5.997 2.045 0 8.048l1.909 1.906L6 5.86l4.094 4.091z"/></symbol><symbol id="icon-Gr-3" viewBox="0 0 32 32"><path d="M15.373.298c8.403 0 15.216 6.812 15.216 15.216S23.777 30.73 15.373 30.73C6.97 30.73.157 23.918.157 15.514S6.969.298 15.373.298z"/><path fill="#fff" style="fill:#fff" d="m11.649 20.327-3.335-3.401.941-.941 2.51 1.569 7.216-7.529.941.627-7.325 9.617a.625.625 0 0 1-.947.059z"/><path fill="#fff" style="fill:#fff" opacity=".497" d="M22.431 12.847h-1.569a.314.314 0 1 1 0-.628h1.569a.314.314 0 1 1 0 .628zM22.431 15.671h-3.765a.314.314 0 1 1 0-.628h3.765a.314.314 0 1 1 0 .628zM22.431 18.494H16.47a.314.314 0 1 1 0-.628h5.961a.314.314 0 1 1 0 .628zM22.431 21.318h-8.157a.314.314 0 1 1 0-.628h8.157a.314.314 0 1 1 0 .628z"/></symbol><symbol id="icon-Gr-2" viewBox="0 0 32 32"><path d="M15.373.298c8.403 0 15.216 6.812 15.216 15.216S23.777 30.73 15.373 30.73C6.97 30.73.157 23.918.157 15.514S6.969.298 15.373.298z"/><path fill="#fff" style="fill:#fff" opacity=".5" d="M16.51 15.899a5.832 5.832 0 0 0-3.219-.003c-.538.149-.899.603-.899 1.129v.292c0 .13.112.235.251.235h4.518c.139 0 .251-.105.251-.235v-.289c0-.526-.362-.98-.902-1.13zM15.059 15.043c.795 0 1.412-.908 1.412-1.689 0-.799-.633-1.448-1.412-1.448s-1.412.649-1.412 1.448c0 .781.617 1.689 1.412 1.689z"/><path fill="#fff" style="fill:#fff" d="M19.361 18.808a5.687 5.687 0 0 1-.694.694l1.815 1.816.694-.695-1.815-1.815z"/><path fill="#fff" style="fill:#fff" d="M15.059 10.024c2.854 0 5.176 2.322 5.176 5.176s-2.322 5.176-5.176 5.176-5.176-2.322-5.176-5.176a5.182 5.182 0 0 1 5.176-5.176zM10.375 15.2c0 2.583 2.101 4.683 4.683 4.683s4.683-2.101 4.683-4.683c0-2.583-2.101-4.683-4.683-4.683s-4.683 2.101-4.683 4.683z"/></symbol><symbol id="icon-Gr-1" viewBox="0 0 32 32"><path d="M15.373.298c8.403 0 15.216 6.812 15.216 15.216S23.777 30.73 15.373 30.73C6.97 30.73.157 23.918.157 15.514S6.969.298 15.373.298z"/><path fill="#fff" style="fill:#fff" d="M13.02 12.533c-.173 0-.314-.094-.314-.209V10.86c0-.116.14-.209.314-.209s.314.094.314.209v1.464c0 .116-.14.209-.314.209zM18.039 12.533c-.173 0-.314-.094-.314-.209V10.86c0-.116.14-.209.314-.209s.314.094.314.209v1.464c0 .116-.14.209-.314.209z"/><path fill="#fff" style="fill:#fff" opacity=".5" d="M16.311 19.32h-5.117c-.126 0-.228-.096-.228-.215v-4.937c0-.119.102-.215.228-.215h8.67c.126 0 .228.096.228.215v2.53c.167.103.32.224.456.36v-5.037c0-.237-.204-.429-.456-.429h-1.369v.859c0 .356-.306.644-.684.644s-.684-.288-.684-.644v-.859h-3.651v.859c0 .356-.306.644-.684.644s-.684-.288-.684-.644v-.859h-1.369c-.252 0-.456.192-.456.429v7.298c0 .237.204.429.456.429h5.524a2.2 2.2 0 0 1-.179-.429z"/><path fill="#fff" style="fill:#fff" d="M18.824 20.69a2.04 2.04 0 1 1 0-4.078 2.04 2.04 0 0 1 0 4.078zm1.293-2.559c.088-.088.088-.232 0-.32s-.232-.088-.32 0l-1.426 1.426-.52-.52c-.089-.086-.23-.085-.318.003s-.089.229-.003.318l.68.68a.227.227 0 0 0 .32 0l1.586-1.586z"/></symbol><symbol id="icon-burger" viewBox="0 0 31 32"><path fill="#fff" style="fill:var(--color3,#fff)" d="M3.902 8.144h23.415v3.122H3.902V8.144zM3.902 14.388h23.415v3.122H3.902v-3.122zM3.902 20.632h23.415v3.122H3.902v-3.122z"/></symbol><symbol id="icon-fr" viewBox="0 0 32 32"><path fill="#fff" style="fill:var(--color3,#fff)" d="M13.92 16.182 4.8 7.062l2.263-2.263 9.12 9.12 9.12-9.12 2.263 2.263-9.12 9.12 8.982 8.982-2.263 2.263-8.982-8.982-8.982 8.982-2.263-2.263 8.982-8.982z"/></symbol><symbol id="icon-go-up" viewBox="0 0 12 12"><path d="M12 8.042 5.997 2.045 0 8.048l1.909 1.906L6 5.86l4.094 4.091z"/></symbol></defs></svg>