<svg aria-hidden="true" style="position: absolute; width: 0; height: 0; overflow: hidden;" version="1.1" xmlns="http://www.w3.org/2000/svg" xmlns:xlink="http://www.w3.org/1999/xlink">
<defs>
<symbol id="icon-instagram" viewBox="0 0 32 32">
<path d="M16.316 32c-0.106 0-0.212 0-0.319-0-2.508 0.006-4.826-0.058-7.080-0.195-2.066-0.126-3.953-0.84-5.455-2.065-1.45-1.182-2.44-2.781-2.942-4.75-0.438-1.715-0.461-3.398-0.483-5.026-0.016-1.168-0.033-2.553-0.036-3.96 0.003-1.414 0.020-2.798 0.036-3.966 0.022-1.628 0.045-3.311 0.483-5.026 0.503-1.97 1.493-3.568 2.942-4.75 1.503-1.225 3.389-1.939 5.456-2.065 2.254-0.137 4.572-0.201 7.086-0.195 2.509-0.005 4.826 0.058 7.080 0.195 2.066 0.126 3.953 0.84 5.455 2.065 1.45 1.182 2.44 2.781 2.943 4.75 0.437 1.715 0.461 3.398 0.483 5.026 0.016 1.168 0.033 2.552 0.036 3.96v0.006c-0.003 1.408-0.020 2.792-0.036 3.96-0.022 1.628-0.045 3.311-0.483 5.026-0.503 1.97-1.493 3.568-2.943 4.75-1.502 1.225-3.389 1.939-5.455 2.065-2.159 0.131-4.376 0.195-6.768 0.195v0zM15.997 29.5c2.468 0.006 4.733-0.056 6.934-0.19 1.563-0.095 2.917-0.602 4.027-1.507 1.026-0.837 1.732-1.991 2.1-3.431 0.364-1.428 0.385-2.96 0.406-4.442 0.016-1.16 0.032-2.535 0.036-3.929-0.004-1.394-0.020-2.769-0.036-3.929-0.020-1.482-0.041-3.015-0.406-4.443-0.367-1.44-1.074-2.594-2.1-3.431-1.11-0.905-2.465-1.412-4.027-1.507-2.201-0.134-4.467-0.196-6.928-0.19-2.467-0.006-4.733 0.056-6.934 0.19-1.563 0.095-2.917 0.602-4.027 1.507-1.026 0.837-1.732 1.991-2.1 3.431-0.364 1.428-0.385 2.96-0.406 4.443-0.016 1.161-0.032 2.537-0.036 3.932 0.003 1.389 0.020 2.765 0.036 3.926 0.020 1.482 0.041 3.015 0.406 4.442 0.367 1.44 1.074 2.594 2.1 3.431 1.11 0.905 2.465 1.412 4.027 1.507 2.201 0.134 4.467 0.197 6.928 0.191v0zM15.937 23.812c-4.308 0-7.813-3.505-7.813-7.812s3.505-7.813 7.813-7.813c4.308 0 7.813 3.505 7.813 7.813s-3.505 7.812-7.813 7.812v0zM15.937 10.687c-2.929 0-5.313 2.383-5.313 5.313s2.383 5.312 5.313 5.312c2.93 0 5.313-2.383 5.313-5.312s-2.383-5.313-5.313-5.313v0zM24.625 5.687c-1.035 0-1.875 0.839-1.875 1.875s0.84 1.875 1.875 1.875c1.036 0 1.875-0.839 1.875-1.875s-0.839-1.875-1.875-1.875z"></path>
</symbol>
<symbol id="icon-phone" viewBox="0 0 30 32">
<path d="M6.032 3.451c-1.038 0.005-2.022 0.461-2.697 1.249-0.558 0.652-0.873 1.483-0.82 2.339 0.337 5.395 2.567 10.693 6.689 14.816s9.421 6.352 14.815 6.689c0.856 0.053 1.687-0.262 2.339-0.82 0.788-0.675 1.244-1.659 1.249-2.697v-2.528c0-1.151-0.783-2.155-1.9-2.435l-3.893-0.975c-0.654-0.164-1.347-0.058-1.921 0.295l-2.896 1.775c-0.426 0.261-0.968 0.246-1.361-0.063-1.007-0.791-2.215-1.887-3.001-2.673s-1.882-1.994-2.673-3.001c-0.309-0.393-0.324-0.935-0.062-1.361l1.775-2.896c0.352-0.575 0.459-1.267 0.295-1.921l-0.975-3.893c-0.28-1.117-1.283-1.9-2.435-1.9h-2.528z"></path>
<path d="M23.241 1.793c0 0.471 0.382 0.852 0.852 0.852h3.116l-9.39 9.39c-0.042 0.042-0.078 0.086-0.109 0.134-0.218 0.331-0.182 0.78 0.109 1.071 0.333 0.333 0.872 0.333 1.205 0l9.39-9.39v3.116c0 0.471 0.382 0.852 0.852 0.852s0.852-0.381 0.852-0.852v-5.173c0-0.471-0.382-0.852-0.852-0.852h-5.173c-0.471 0-0.852 0.381-0.852 0.852z"></path>
</symbol>
</defs>
</svg>
