<svg aria-hidden="true" style="position: absolute; width: 0; height: 0; overflow: hidden;" version="1.1" xmlns="http://www.w3.org/2000/svg" xmlns:xlink="http://www.w3.org/1999/xlink">
<defs>
<symbol id="icon-instagram" viewBox="0 0 32 32">
<path d="M16.316 32c-0.106 0-0.212 0-0.319-0-2.508 0.006-4.826-0.058-7.080-0.195-2.066-0.126-3.953-0.84-5.455-2.065-1.45-1.182-2.44-2.781-2.942-4.75-0.438-1.715-0.461-3.398-0.483-5.026-0.016-1.168-0.033-2.553-0.036-3.96 0.003-1.414 0.020-2.798 0.036-3.966 0.022-1.628 0.045-3.311 0.483-5.026 0.503-1.97 1.493-3.568 2.942-4.75 1.503-1.225 3.389-1.939 5.456-2.065 2.254-0.137 4.572-0.201 7.086-0.195 2.509-0.005 4.826 0.058 7.080 0.195 2.066 0.126 3.953 0.84 5.455 2.065 1.45 1.182 2.44 2.781 2.943 4.75 0.437 1.715 0.461 3.398 0.483 5.026 0.016 1.168 0.033 2.552 0.036 3.96v0.006c-0.003 1.408-0.020 2.792-0.036 3.96-0.022 1.628-0.045 3.311-0.483 5.026-0.503 1.97-1.493 3.568-2.943 4.75-1.502 1.225-3.389 1.939-5.455 2.065-2.159 0.131-4.376 0.195-6.768 0.195v0zM15.997 29.5c2.468 0.006 4.733-0.056 6.934-0.19 1.563-0.095 2.917-0.602 4.027-1.507 1.026-0.837 1.732-1.991 2.1-3.431 0.364-1.428 0.385-2.96 0.406-4.442 0.016-1.16 0.032-2.535 0.036-3.929-0.004-1.394-0.020-2.769-0.036-3.929-0.020-1.482-0.041-3.015-0.406-4.443-0.367-1.44-1.074-2.594-2.1-3.431-1.11-0.905-2.465-1.412-4.027-1.507-2.201-0.134-4.467-0.196-6.928-0.19-2.467-0.006-4.733 0.056-6.934 0.19-1.563 0.095-2.917 0.602-4.027 1.507-1.026 0.837-1.732 1.991-2.1 3.431-0.364 1.428-0.385 2.96-0.406 4.443-0.016 1.161-0.032 2.537-0.036 3.932 0.003 1.389 0.020 2.765 0.036 3.926 0.020 1.482 0.041 3.015 0.406 4.442 0.367 1.44 1.074 2.594 2.1 3.431 1.11 0.905 2.465 1.412 4.027 1.507 2.201 0.134 4.467 0.197 6.928 0.191v0zM15.937 23.812c-4.308 0-7.813-3.505-7.813-7.812s3.505-7.813 7.813-7.813c4.308 0 7.813 3.505 7.813 7.813s-3.505 7.812-7.813 7.812v0zM15.937 10.687c-2.929 0-5.313 2.383-5.313 5.313s2.383 5.312 5.313 5.312c2.93 0 5.313-2.383 5.313-5.312s-2.383-5.313-5.313-5.313v0zM24.625 5.687c-1.035 0-1.875 0.839-1.875 1.875s0.84 1.875 1.875 1.875c1.036 0 1.875-0.839 1.875-1.875s-0.839-1.875-1.875-1.875z"></path>
</symbol>
<symbol id="icon-phone" viewBox="0 0 30 32">
<path d="M6.032 3.451c-1.038 0.005-2.022 0.461-2.697 1.249-0.558 0.652-0.873 1.483-0.82 2.339 0.337 5.395 2.567 10.693 6.689 14.816s9.421 6.352 14.815 6.689c0.856 0.053 1.687-0.262 2.339-0.82 0.788-0.675 1.244-1.659 1.249-2.697v-2.528c0-1.151-0.783-2.155-1.9-2.435l-3.893-0.975c-0.654-0.164-1.347-0.058-1.921 0.295l-2.896 1.775c-0.426 0.261-0.968 0.246-1.361-0.063-1.007-0.791-2.215-1.887-3.001-2.673s-1.882-1.994-2.673-3.001c-0.309-0.393-0.324-0.935-0.062-1.361l1.775-2.896c0.352-0.575 0.459-1.267 0.295-1.921l-0.975-3.893c-0.28-1.117-1.283-1.9-2.435-1.9h-2.528z"></path>
<path d="M23.241 1.793c0 0.471 0.382 0.852 0.852 0.852h3.116l-9.39 9.39c-0.042 0.042-0.078 0.086-0.109 0.134-0.218 0.331-0.182 0.78 0.109 1.071 0.333 0.333 0.872 0.333 1.205 0l9.39-9.39v3.116c0 0.471 0.382 0.852 0.852 0.852s0.852-0.381 0.852-0.852v-5.173c0-0.471-0.382-0.852-0.852-0.852h-5.173c-0.471 0-0.852 0.381-0.852 0.852z"></path>
</symbol>
<symbol id="icon-facebook" viewBox="0 0 32 32">
<path d="M22.446 5.72h3.131v-5.717h-5.69c-0.475-0.020-6.261-0.13-7.761 5.589-0.022 0.060-0.501 1.42-0.501 4.597l-5.203 0.016v5.996l5.21-0.015v15.815h7.958v-15.801h5.267v-6.012h-5.267v-1.892c0-1.176 0.496-2.577 2.857-2.577zM23.54 11.504v3.378h-5.267v15.801h-5.324v-15.818l-5.21 0.015v-3.362l5.223-0.015-0.014-0.67c-0.068-3.366 0.411-4.781 0.433-4.849 1.294-4.926 6.237-4.678 6.449-4.665l4.43 0.001v3.083h-1.814c-3.077 0-4.173 2.011-4.173 3.892v3.208h5.266z"></path>
</symbol>
<symbol id="icon-telegram" viewBox="0 0 32 32">
<path d="M25.6 5.867l-21.733 8.4c-1.467 0.533-1.467 1.467-0.267 1.733l5.467 1.733 2.133 6.4c0.267 0.667 0.133 0.933 0.8 0.933 0.533 0 0.8-0.267 1.067-0.533 0.133-0.133 1.333-1.333 2.667-2.667l5.6 4.133c1.067 0.533 1.733 0.267 2-0.933l3.733-17.467c0.4-1.467-0.533-2.267-1.467-1.733zM22.8 9.867l-10.4 9.467-0.4 4.4-2.133-6.4 12.267-7.733c0.533-0.4 1.067-0.133 0.667 0.267z"></path>
</symbol>
<symbol id="icon-viber" viewBox="0 0 32 32">
<path d="M19.047 0h-6.095c-6.384 0-11.578 5.193-11.578 11.575v5.491c0 4.753 2.921 9.025 7.313 10.765v3.559c0 0.241 0.142 0.459 0.363 0.557 0.079 0.035 0.163 0.052 0.247 0.052 0.148 0 0.295-0.054 0.409-0.158l3.534-3.201h5.808c6.384 0 11.578-5.193 11.578-11.575v-5.491c0-6.383-5.194-11.575-11.578-11.575zM29.406 17.066c0 5.711-4.647 10.357-10.359 10.357h-6.043c-0.151 0-0.297 0.056-0.409 0.158l-2.689 2.436v-2.608c0-0.258-0.163-0.489-0.406-0.574-4.13-1.461-6.906-5.386-6.906-9.769v-5.491c0-5.711 4.647-10.357 10.359-10.357h6.095c5.712 0 10.359 4.646 10.359 10.357v5.491z"></path>
<path d="M24.053 18.582l-3.745-2.433c-0.41-0.266-0.897-0.357-1.374-0.258-0.478 0.101-0.889 0.383-1.155 0.794l-0.176 0.271c-1.621-0.536-3.408-1.22-4.478-4.318l0.443-0.385c0.761-0.661 0.84-1.818 0.179-2.58l-2.93-3.371c-0.221-0.254-0.606-0.28-0.86-0.060l-1.84 1.599c-1.614 1.403-0.86 3.478-0.612 4.16 0.011 0.030 0.024 0.060 0.040 0.088 0.064 0.115 1.592 2.841 4.059 5.354 2.477 2.523 6.95 4.854 7.087 4.921 0.511 0.331 1.085 0.491 1.654 0.491 0.998 0 1.977-0.489 2.561-1.386l1.327-2.044c0.183-0.283 0.102-0.661-0.18-0.844zM21.883 20.806c-0.549 0.846-1.684 1.086-2.58 0.508-0.044-0.023-4.488-2.337-6.829-4.723-2.189-2.23-3.642-4.707-3.84-5.053-0.483-1.353-0.397-2.185 0.283-2.776l1.38-1.199 2.53 2.91c0.225 0.258 0.199 0.636-0.059 0.86l-0.748 0.65c-0.182 0.158-0.254 0.409-0.183 0.639 1.275 4.143 3.754 4.956 5.564 5.55l0.264 0.087c0.264 0.089 0.553-0.013 0.704-0.246l0.432-0.665c0.089-0.138 0.225-0.231 0.384-0.264s0.321-0.002 0.459 0.087l3.235 2.101-0.996 1.534z"></path>
<path d="M17.391 9.901c-0.324-0.093-0.661 0.095-0.753 0.419s0.096 0.661 0.419 0.753c0.908 0.258 1.631 0.983 1.887 1.892 0.076 0.268 0.32 0.444 0.586 0.444 0.055 0 0.11-0.007 0.166-0.023 0.324-0.091 0.512-0.428 0.421-0.752-0.37-1.313-1.415-2.36-2.726-2.733z"></path>
<path d="M22.028 13.54c0.055 0 0.11-0.007 0.166-0.023 0.324-0.091 0.512-0.428 0.421-0.752-0.719-2.549-2.748-4.582-5.295-5.307-0.324-0.093-0.661 0.096-0.753 0.42s0.096 0.661 0.419 0.753c2.143 0.609 3.85 2.321 4.455 4.466 0.076 0.268 0.32 0.444 0.586 0.444z"></path>
<path d="M17.058 4.62c-0.324-0.093-0.661 0.095-0.753 0.42-0.092 0.324 0.096 0.661 0.419 0.753 3.631 1.033 6.524 3.932 7.549 7.566 0.076 0.268 0.32 0.444 0.586 0.444 0.055 0 0.11-0.007 0.166-0.023 0.324-0.091 0.512-0.428 0.421-0.752-1.139-4.038-4.353-7.26-8.388-8.408z"></path>
</symbol>
<symbol id="icon-like" viewBox="0 0 32 32">
<path fill="#f86808" style="fill: var(--color1, #f86808)" d="M18.253 1.333c-0.572 0-1.104 0.295-1.408 0.78l-6.179 9.886v16h14.352c1.010 0 1.933-0.571 2.385-1.474l2.7-5.4c0.37-0.741 0.563-1.557 0.563-2.385v-5.408c0-1.473-1.194-2.667-2.667-2.667h-8.667l1.355-6.322c0.332-1.55-0.849-3.012-2.435-3.012z"></path>
<path fill="#f86808" style="fill: var(--color1, #f86808)" d="M2.667 13.333c0-0.736 0.597-1.333 1.333-1.333h4v16h-4c-0.736 0-1.333-0.597-1.333-1.333v-13.333z"></path>
</symbol>
<symbol id="icon-smile" viewBox="0 0 32 32">
<path fill="#f86808" style="fill: var(--color1, #f86808)" d="M16 0.5c-8.563 0-15.5 6.938-15.5 15.5s6.938 15.5 15.5 15.5 15.5-6.938 15.5-15.5-6.938-15.5-15.5-15.5zM21 11c1.106 0 2 0.894 2 2s-0.894 2-2 2-2-0.894-2-2 0.894-2 2-2zM11 11c1.106 0 2 0.894 2 2s-0.894 2-2 2-2-0.894-2-2 0.894-2 2-2zM23.175 21.637c-1.781 2.137-4.394 3.363-7.175 3.363s-5.394-1.225-7.175-3.363c-0.85-1.019 0.688-2.294 1.537-1.281 1.4 1.681 3.45 2.637 5.638 2.637s4.238-0.962 5.637-2.637c0.837-1.012 2.381 0.262 1.538 1.281z"></path>
</symbol>
<symbol id="icon-flash" viewBox="0 0 32 32">
<path fill="#f86808" style="fill: var(--color1, #f86808)" d="M17.457 1.693c0.377-0.528 1.209-0.261 1.209 0.388v11.253h6.705c0.542 0 0.858 0.613 0.542 1.054l-11.371 15.92c-0.377 0.528-1.209 0.261-1.209-0.387v-11.253h-6.705c-0.542 0-0.858-0.613-0.542-1.054l11.371-15.92z"></path>
</symbol>
</defs>
</svg>
