<svg aria-hidden="true" style="position: absolute; width: 0; height: 0; overflow: hidden;" version="1.1" xmlns="http://www.w3.org/2000/svg" xmlns:xlink="http://www.w3.org/1999/xlink">
<defs>
<symbol id="icon-Rectangle-105" viewBox="0 0 32 32">
<path fill="#fff" d="M15.588 0.246c8.598 0 15.569 6.97 15.569 15.569v0.37c0 8.599-6.97 15.569-15.569 15.569s-15.569-6.97-15.569-15.569v-0.37c0-8.598 6.97-15.569 15.569-15.569z"></path>
</symbol>
<symbol id="icon-Rectangle-106" viewBox="0 0 32 32">
<path fill="#c4c4c4" style="fill: var(--color2, #c4c4c4)" d="M13.759 0.666h3.641c7.364 0 13.333 5.97 13.333 13.333v4c0 7.364-5.97 13.333-13.333 13.333h-3.641c-7.364 0-13.333-5.97-13.333-13.333v-4c0-7.364 5.97-13.333 13.333-13.333z"></path>
</symbol>
<symbol id="icon-1" viewBox="0 0 12 32">
<path d="M6.016 31.892v-25.23l-5.955 3.661v-6.616l5.955-3.573h6.131v31.758h-6.131z"></path>
</symbol>
<symbol id="icon-2" viewBox="0 0 22 32">
<path d="M0.161 31.851v-5.101l13.056-11.586c0.98-0.865 1.672-1.679 2.075-2.443s0.605-1.477 0.605-2.14c0-0.951-0.195-1.794-0.584-2.529-0.389-0.749-0.937-1.333-1.643-1.751-0.706-0.432-1.535-0.648-2.486-0.648-0.994 0-1.873 0.231-2.637 0.692-0.749 0.447-1.333 1.045-1.751 1.794-0.418 0.735-0.612 1.535-0.584 2.399h-6.052c0-2.133 0.468-3.977 1.405-5.534s2.241-2.76 3.913-3.61c1.672-0.85 3.617-1.275 5.836-1.275 2.032 0 3.848 0.447 5.447 1.34 1.614 0.879 2.882 2.111 3.804 3.696s1.383 3.423 1.383 5.512c0 1.542-0.216 2.824-0.648 3.848-0.432 1.009-1.074 1.945-1.924 2.81-0.85 0.85-1.895 1.816-3.134 2.897l-8.43 7.393-0.476-1.297h14.612v5.534h-21.789z"></path>
</symbol>
<symbol id="icon-3" viewBox="0 0 22 32">
<path d="M10.567 31.82c-1.556 0-3.041-0.31-4.453-0.929-1.412-0.634-2.644-1.52-3.696-2.659-1.038-1.138-1.78-2.479-2.226-4.021l5.707-1.513c0.303 1.138 0.893 2.025 1.772 2.659 0.893 0.62 1.859 0.929 2.897 0.929 0.893 0 1.708-0.216 2.443-0.648 0.749-0.432 1.34-1.016 1.773-1.751 0.447-0.735 0.67-1.549 0.67-2.443 0-1.34-0.461-2.486-1.383-3.437-0.908-0.965-2.075-1.448-3.502-1.448-0.432 0-0.85 0.065-1.254 0.195-0.403 0.115-0.793 0.281-1.167 0.497l-2.637-4.626 9.9-8.214 0.432 1.254h-14.439v-5.534h19.454v5.534l-7.695 7.436-0.043-1.643c1.787 0.274 3.293 0.901 4.518 1.881 1.239 0.966 2.176 2.162 2.81 3.588 0.648 1.412 0.973 2.918 0.973 4.518 0 1.96-0.497 3.725-1.491 5.296-0.994 1.556-2.313 2.796-3.956 3.718-1.643 0.908-3.444 1.362-5.404 1.362z"></path>
</symbol>
<symbol id="icon-Ellipse-1909" viewBox="0 0 25 32">
<path fill="#e6f0f4" style="fill: var(--color3, #e6f0f4)" d="M32 16c0 8.837-7.163 16-16 16s-16-7.163-16-16c0-8.837 7.163-16 16-16s16 7.163 16 16z"></path>
</symbol>
</defs>
</svg>
