<?xml version="1.0" standalone="no"?>
<!DOCTYPE svg PUBLIC "-//W3C//DTD SVG 20010904//EN"
 "http://www.w3.org/TR/2001/REC-SVG-20010904/DTD/svg10.dtd">
<svg version="1.0" xmlns="http://www.w3.org/2000/svg"
 width="1122.000000pt" height="1122.000000pt" viewBox="0 0 1122.000000 1122.000000"
 preserveAspectRatio="xMidYMid meet">
<metadata>
Created by potrace 1.14, written by Peter Selinger 2001-2017
</metadata>
<g transform="translate(0.000000,1122.000000) scale(0.100000,-0.100000)"
fill="#000000" stroke="none">
<path d="M0 5610 l0 -5610 5610 0 5610 0 0 5610 0 5610 -5610 0 -5610 0 0
-5610z m4773 3588 c3 -29 23 -242 43 -473 20 -231 40 -423 44 -428 3 -4 49 13
101 37 197 93 370 134 604 143 404 14 739 -107 838 -304 48 -93 46 -112 -37
-498 -97 -450 -95 -433 -61 -473 33 -39 78 -64 161 -87 l61 -17 -10 -39 c-5
-21 -13 -39 -18 -39 -4 0 -71 16 -149 35 -238 58 -633 115 -800 115 l-60 0 0
44 0 44 93 4 c54 2 104 9 121 18 60 30 65 52 102 423 42 421 43 460 15 515
-45 89 -160 142 -322 150 -119 5 -199 -6 -316 -44 -94 -30 -303 -132 -310
-151 -10 -26 68 -816 84 -846 20 -40 72 -58 185 -65 l98 -5 0 -43 0 -44 -77 0
c-181 0 -504 -42 -748 -97 -88 -20 -169 -38 -181 -40 -18 -4 -23 2 -31 36
l-11 40 55 16 c86 25 160 61 172 83 6 12 11 36 11 55 0 34 -281 1394 -300
1453 -31 94 -163 142 -356 129 -89 -5 -102 -4 -108 10 -13 34 -5 46 42 66 360
157 884 328 1008 329 l51 0 6 -52z m-1478 -450 c166 -469 156 -437 137 -446
-9 -5 -47 -19 -83 -32 l-65 -22 -93 36 c-445 179 -928 123 -1376 -159 -360
-226 -613 -534 -712 -864 -37 -126 -44 -314 -14 -431 57 -230 209 -417 426
-525 153 -75 227 -90 455 -90 189 0 199 1 325 34 223 57 421 146 628 281 339
220 601 482 792 793 l48 77 73 0 c41 0 74 -4 74 -8 0 -17 -140 -222 -221 -322
-101 -126 -287 -314 -424 -429 -151 -126 -474 -366 -652 -484 -696 -462 -1238
-631 -1620 -506 -83 27 -197 103 -256 170 -59 67 -120 188 -148 294 -31 116
-31 357 0 505 146 692 707 1363 1436 1715 72 34 229 102 350 150 313 125 447
195 571 301 35 30 83 55 155 83 57 22 111 40 120 40 12 1 31 -40 74 -161z
m4395 57 c151 -58 321 -135 510 -231 955 -481 1758 -1194 2362 -2097 l99 -149
-22 -36 c-19 -32 -220 -354 -253 -404 -6 -10 -13 -18 -17 -18 -3 0 -31 43 -62
95 l-57 94 -3 158 c-6 246 -51 422 -170 658 -93 187 -209 337 -443 574 l-142
144 -170 -189 c-877 -979 -982 -1099 -998 -1146 -28 -86 7 -160 167 -351 l82
-99 -30 -30 -30 -30 -58 64 c-304 329 -668 619 -1035 823 -58 32 -106 60 -108
61 -8 5 33 74 42 70 6 -2 75 -34 153 -71 203 -95 286 -99 365 -17 20 20 248
347 507 727 l471 689 -75 48 c-253 161 -550 288 -781 335 -147 29 -363 25
-558 -11 l-158 -29 -85 27 c-76 25 -83 29 -71 44 53 64 195 221 265 294 l83
87 68 -25 c37 -14 105 -41 152 -59z m-873 -2166 c102 -93 150 -134 295 -255
27 -22 27 -23 13 -58 -9 -20 -19 -36 -24 -36 -4 0 -68 29 -142 64 -251 119
-327 133 -442 79 l-68 -32 43 -79 c473 -864 1322 -2385 1353 -2419 21 -25 54
-52 72 -60 70 -29 138 32 224 200 28 54 53 96 56 93 3 -3 20 -27 38 -53 l32
-48 -39 -95 c-153 -367 -392 -714 -682 -987 -78 -74 -246 -214 -264 -220 -4
-2 -18 29 -32 69 l-26 72 103 101 c128 126 164 194 171 321 4 67 0 99 -21 171
-25 88 -1216 2823 -1229 2823 -21 0 -98 -74 -126 -120 -61 -103 -84 -223 -103
-550 -6 -113 -15 -212 -20 -221 -8 -16 -57 -35 -66 -25 -2 2 -22 127 -43 277
-21 151 -53 359 -70 463 -16 104 -27 193 -23 196 5 4 49 17 98 30 288 74 575
214 740 364 28 25 53 44 57 43 3 -1 60 -50 125 -108z m-2666 -101 c59 -20 83
-44 139 -140 66 -111 81 -128 119 -128 21 0 40 12 75 50 25 27 46 54 46 61 0
8 12 10 36 6 20 -3 38 -8 40 -10 5 -4 -284 -1228 -291 -1235 -5 -6 -46 5 -63
16 -11 8 -12 63 -2 323 18 469 1 718 -56 830 -20 41 -34 55 -71 71 -39 17 -51
18 -90 8 -143 -35 -380 -225 -640 -511 -674 -740 -974 -1499 -857 -2168 62
-356 257 -627 520 -723 81 -29 225 -35 319 -14 143 34 294 126 438 268 39 38
71 67 72 66 1 -2 21 -33 45 -70 l42 -68 -56 -64 c-123 -139 -301 -262 -452
-312 -82 -27 -101 -29 -234 -29 -137 0 -150 2 -232 31 -48 17 -122 53 -165 79
-99 62 -272 233 -342 340 -193 295 -282 657 -268 1095 12 372 97 711 260 1035
196 390 479 671 946 940 378 217 600 295 722 253z m883 -255 c-8 -84 -115
-1895 -112 -1904 2 -5 28 23 58 62 85 110 191 203 278 246 70 35 83 38 156 37
88 -1 124 -13 194 -63 114 -84 221 -302 271 -554 11 -56 63 -397 116 -757 108
-736 124 -826 155 -870 42 -59 122 -76 210 -45 23 8 46 15 51 15 7 0 13 -24
35 -141 5 -25 1 -27 -108 -62 -290 -94 -581 -150 -895 -173 l-93 -7 0 92 c0
90 0 91 25 91 13 0 47 5 76 11 104 22 159 107 159 246 0 95 -98 1527 -110
1608 -32 214 -112 358 -209 380 -76 16 -193 -80 -330 -272 l-57 -79 -48 -807
c-27 -444 -46 -838 -44 -875 7 -89 30 -136 83 -168 34 -20 150 -53 188 -54 4
0 7 -39 7 -87 l0 -86 -130 6 c-290 15 -620 75 -888 162 -61 20 -112 37 -112
38 0 8 31 161 33 163 1 1 36 -5 78 -14 66 -12 83 -13 120 -1 53 18 75 47 94
129 8 36 107 716 220 1512 175 1232 205 1464 205 1565 0 133 -15 209 -53 277
-24 44 -25 51 -15 101 11 54 12 56 105 121 51 37 128 98 171 135 43 38 87 68
99 68 20 1 22 -3 17 -46z"/>
<path d="M3950 8928 l-85 -23 112 -11 c127 -14 177 -35 225 -95 28 -34 37 -75
169 -763 76 -400 139 -743 139 -764 0 -21 -7 -48 -16 -60 -14 -21 -14 -22 6
-22 60 0 137 64 146 121 5 34 -204 1404 -227 1484 -16 58 -55 104 -108 127
-72 32 -249 35 -361 6z"/>
<path d="M5800 8349 c102 -56 140 -107 140 -187 0 -77 -89 -821 -101 -845 -6
-12 -25 -35 -43 -50 l-31 -28 65 4 c87 6 127 27 151 82 16 37 66 334 120 723
24 175 -37 258 -232 312 -41 11 -85 20 -99 20 -20 0 -15 -6 30 -31z"/>
<path d="M2840 8622 c-30 -20 -106 -62 -169 -93 l-113 -58 163 0 c90 -1 193
-5 229 -10 36 -4 66 -8 67 -7 5 4 -103 200 -112 202 -5 1 -35 -14 -65 -34z"/>
<path d="M998 7408 c-302 -455 -414 -848 -342 -1201 18 -86 46 -155 100 -237
74 -116 171 -188 319 -238 75 -25 91 -26 255 -26 164 0 182 2 292 32 258 69
567 214 906 424 61 38 112 71 112 74 0 2 -32 -12 -72 -32 -360 -182 -710 -310
-953 -349 -115 -19 -290 -19 -380 0 -216 45 -371 194 -445 430 -48 149 -36
428 26 643 46 159 147 389 240 548 47 80 18 46 -58 -68z"/>
<path d="M7430 8685 l-93 -93 64 14 c104 24 308 28 428 10 57 -9 106 -14 108
-12 4 3 -212 95 -338 144 l-77 29 -92 -92z"/>
<path d="M8453 7338 c-270 -381 -506 -707 -525 -724 -46 -44 -70 -54 -141 -62
l-62 -8 84 -42 c46 -23 95 -42 109 -42 40 0 103 35 149 82 49 51 946 1225 968
1268 31 61 15 117 -52 183 l-39 37 -491 -692z"/>
<path d="M10088 6958 c25 -32 123 -242 151 -327 17 -51 42 -145 54 -207 13
-62 26 -116 29 -119 5 -5 98 205 98 221 0 18 -323 444 -337 444 -3 0 -1 -6 5
-12z"/>
<path d="M6666 6565 l-48 -43 58 -12 c32 -7 100 -29 151 -50 l94 -39 -97 92
c-53 51 -99 93 -103 94 -3 1 -28 -18 -55 -42z"/>
<path d="M6290 6304 c0 -4 268 -601 596 -1327 656 -1452 645 -1426 668 -1518
17 -71 21 -192 7 -253 l-9 -38 35 33 c51 49 85 123 91 195 5 71 -8 135 -51
249 -31 85 -1176 2458 -1228 2547 -42 73 -109 141 -109 112z"/>
<path d="M5911 6172 l-53 -15 6 -46 c4 -25 19 -122 35 -216 l27 -170 12 150
c7 83 21 187 31 233 21 91 24 88 -58 64z"/>
<path d="M3800 6416 c-231 -94 -526 -265 -710 -413 -319 -255 -542 -572 -678
-963 -158 -457 -173 -974 -40 -1389 28 -90 117 -305 123 -299 1 2 -17 62 -40
133 -47 141 -77 280 -96 444 -17 156 -7 514 20 666 87 491 283 880 601 1195
180 179 447 375 755 555 133 78 191 115 179 115 -5 -1 -56 -20 -114 -44z"/>
<path d="M4314 5952 l9 -206 53 199 c30 110 54 204 54 208 0 4 -9 3 -19 -3
-24 -12 -67 -13 -89 -1 -16 8 -16 -5 -8 -197z"/>
<path d="M4703 5943 c3 -10 16 -45 29 -78 20 -54 23 -76 22 -220 -1 -147 -16
-273 -183 -1540 -99 -759 -188 -1427 -197 -1485 -17 -110 -45 -200 -69 -220
-8 -7 -15 -16 -15 -21 0 -12 61 -26 89 -21 41 8 104 81 124 142 18 57 322
2879 334 3105 7 129 -8 238 -40 304 -21 41 -27 46 -61 49 -34 3 -38 1 -33 -15z"/>
<path d="M5423 4510 c60 -66 105 -170 126 -295 18 -102 143 -1706 138 -1767
-3 -31 -16 -82 -30 -112 -30 -64 -23 -70 49 -37 71 32 96 80 109 206 7 63
-115 1322 -155 1602 -38 266 -92 382 -202 427 -65 27 -74 21 -35 -24z"/>
</g>
</svg>
